<svg id="Capa_1" enable-background="new 0 0 512 512" height="512" viewBox="0 0 512 512" width="512" xmlns="http://www.w3.org/2000/svg"><g><g><path d="m386.783 335.851h40.625v125.424h-40.625z" fill="#717ed4"/><path d="m366.431 478.48c0-9.502 7.703-17.205 17.205-17.205h46.918c9.502 0 17.205 7.703 17.205 17.205s-7.703 17.205-17.205 17.205h-46.918c-9.502 0-17.205-7.703-17.205-17.205z" fill="#e27f86"/><path d="m366.789 60.936 33.103-41.195c3.688-4.59 10.684-4.563 14.337.055l32.585 41.193c4.385 5.543 6.77 12.404 6.77 19.472v236.285h-93.716v-236.15c.001-7.151 2.442-14.087 6.921-19.66z" fill="#d6e0f4"/><path d="m446.814 60.989-32.585-41.193c-3.653-4.618-10.649-4.644-14.337-.055l-5.395 6.714 27.318 34.534c4.385 5.543 6.77 12.404 6.77 19.472v236.285h24.999v-236.285c.001-7.068-2.385-13.929-6.77-19.472z" fill="#b8c9ea"/><path d="m502.967 340.862-21.299-32.271c-3.117-4.723-8.398-7.565-14.057-7.565h-20.263c-1.944 0-3.854-.511-5.539-1.482l-30.435-17.543c-2.876-1.658-6.418-1.658-9.294 0l-30.435 17.543c-1.684.971-3.594 1.482-5.539 1.482h-20.263c-5.659 0-10.94 2.842-14.057 7.565l-21.299 32.271c-3.296 4.993-1.044 11.754 4.587 13.774l13.429 4.818c4.006 1.437 8.476-.051 10.821-3.603l9.142-13.848c2.537-3.843 6.834-6.155 11.439-6.155h93.643c4.605 0 8.902 2.312 11.439 6.155l9.141 13.847c2.345 3.552 6.815 5.041 10.822 3.603l13.43-4.818c5.631-2.019 7.882-8.78 4.587-13.773z" fill="#e27f86"/><path d="m183.664 173.529c-4.407 0-8.494 2.542-10.224 6.596-4.82 11.299-16.021 19.221-29.082 19.221s-24.269-7.923-29.089-19.222c-1.729-4.054-5.816-6.597-10.223-6.597h-88.732c-4.857 0-8.794 3.939-8.794 8.796v149.004c0 55.487 27.043 104.649 68.677 135.041 16.301 11.901 34.832 20.922 54.852 26.313 8.719 2.348 17.893 2.349 26.612.002 20.02-5.391 38.552-14.414 54.853-26.314 41.633-30.393 68.677-79.554 68.677-135.041v-149.004c0-4.857-3.937-8.794-8.794-8.794h-88.733z" fill="#91dafa"/><path d="m272.396 173.529h-27.999c4.857 0 8.794 3.937 8.794 8.794v149.005c0 55.487-27.044 104.649-68.677 135.041-16.112 11.763-34.405 20.706-54.159 26.117.232.063.461.133.693.195 8.719 2.348 17.893 2.349 26.612.002 20.02-5.391 38.551-14.414 54.853-26.314 41.633-30.393 68.677-79.554 68.677-135.041v-149.004c0-4.857-3.937-8.795-8.794-8.795z" fill="#6cbff8"/><path d="m144.358 199.347v140.535h-136.617c-.39-7.315-.186-1.169-.221-157.557-.001-4.859 3.935-8.796 8.794-8.796h88.732c4.407 0 8.503 2.543 10.223 6.597 4.829 11.297 16.021 19.221 29.089 19.221z" fill="#717ed4"/><path d="m280.968 339.881c-3.697 73.433-54.814 134.354-123.308 152.803-4.356 1.167-8.836 1.763-13.302 1.763v-154.566z" fill="#717ed4"/><path d="m280.968 339.881h-28.01c-2.621 51.965-28.964 97.668-68.444 126.489-12.232 8.93-25.725 16.23-40.156 21.599v6.479c4.467 0 8.946-.596 13.302-1.763 68.495-18.449 119.612-79.37 123.308-152.804z" fill="#5766cc"/><path d="m93.104 205.675c11.848 16.026 30.725 25.816 51.252 25.816s39.403-9.789 51.252-25.816h85.583v-23.351c0-4.857-3.937-8.794-8.794-8.794h-88.733c-4.408 0-8.494 2.542-10.224 6.596-4.82 11.299-16.021 19.221-29.082 19.221-13.06 0-24.269-7.923-29.089-19.222-1.729-4.054-5.815-6.597-10.223-6.597h-88.732c-4.857 0-8.794 3.939-8.794 8.796v23.35h85.584z" fill="#ffc269"/><path d="m272.396 173.529h-27.999c4.857 0 8.794 3.937 8.794 8.794v23.351h27.999v-23.351c0-4.856-3.937-8.794-8.794-8.794z" fill="#ffa95f"/></g><g><path d="m509.224 336.734-21.3-32.272c-4.519-6.846-12.114-10.933-20.317-10.933h-6.522v-41.349c0-4.142-3.357-7.5-7.5-7.5s-7.5 3.358-7.5 7.5v41.114c-.184-.069-.364-.147-.535-.246l-30.437-17.544c-5.174-2.981-11.605-2.982-16.783 0l-30.435 17.543c-.169.097-.347.175-.528.244v-212.7c0-5.427 1.869-10.739 5.267-14.963l33.097-41.197c.418-.52.936-.658 1.312-.625.367.001.892.112 1.301.628l32.589 41.198c3.323 4.203 5.153 9.465 5.153 14.818v136.73c0 4.142 3.357 7.5 7.5 7.5s7.5-3.358 7.5-7.5v-136.729c0-8.715-2.978-17.282-8.389-24.123l-32.591-41.202c-3.164-3.997-7.904-6.3-13.006-6.32-.021 0-.043 0-.064 0-5.078 0-9.811 2.267-12.996 6.227l-33.098 41.197c-5.53 6.875-8.576 15.527-8.576 24.361v212.936h-6.53c-8.203 0-15.799 4.087-20.317 10.933l-21.301 32.273c-2.847 4.314-3.543 9.6-1.909 14.503 1.633 4.903 5.359 8.716 10.224 10.462l13.431 4.818c7.279 2.612 15.348-.072 19.613-6.531l9.142-13.848c1.152-1.746 3.089-2.788 5.181-2.788h19.379v110.822c-11.553 2.063-20.353 12.177-20.353 24.314 0 13.623 11.083 24.706 24.706 24.706h46.92c13.623 0 24.706-11.083 24.706-24.706 0-12.137-8.8-22.251-20.353-24.314v-110.82h18.642c2.091 0 4.027 1.041 5.18 2.788l9.142 13.848c3.173 4.805 8.449 7.522 13.942 7.522 4.738 0 6.631-1.6 19.102-5.81 4.864-1.746 8.591-5.559 10.224-10.463 1.629-4.903.933-10.189-1.913-14.502zm-68.969 141.753c0 5.352-4.354 9.706-9.706 9.706h-46.92c-5.352 0-9.706-4.354-9.706-9.706s4.354-9.706 9.706-9.706h46.92c5.352 0 9.706 4.354 9.706 9.706zm-20.353-24.706h-25.626v-110.43h25.626zm77-107.284c-.121.365-.403.848-1.058 1.083l-13.431 4.818c-.758.272-1.589-.008-2.031-.676l-9.141-13.847c-3.936-5.964-10.552-9.525-17.698-9.525h-93.647c-7.145 0-13.762 3.561-17.698 9.524l-9.142 13.847c-.44.669-1.277.949-2.03.677l-13.431-4.818c-.654-.235-.937-.718-1.058-1.082-.122-.365-.186-.921.197-1.501l21.301-32.272c1.734-2.627 4.649-4.196 7.798-4.196h20.263c3.254 0 6.464-.859 9.284-2.484l30.436-17.544c.557-.322 1.247-.32 1.804 0l30.437 17.544c2.819 1.624 6.029 2.483 9.283 2.483h20.263c3.148 0 6.063 1.569 7.798 4.196l21.3 32.272c.387.581.322 1.137.201 1.501z"/><path d="m272.386 166.026h-35.541c-4.143 0-7.5 3.358-7.5 7.5s3.357 7.5 7.5 7.5h35.541c.714 0 1.294.581 1.294 1.294v15.852h-78.086c-2.379 0-4.616 1.128-6.03 3.041-10.544 14.261-27.449 22.775-45.219 22.775-17.777 0-34.684-8.514-45.226-22.775-1.414-1.913-3.652-3.041-6.031-3.041h-78.088v-15.851c0-.715.58-1.296 1.294-1.296h88.735c1.469 0 2.805.82 3.325 2.04 6.162 14.446 20.289 23.78 35.989 23.78 15.695 0 29.819-9.334 35.981-23.779.52-1.22 1.856-2.039 3.325-2.039h18.196c4.143 0 7.5-3.358 7.5-7.5s-3.357-7.5-7.5-7.5h-18.195c-7.511 0-14.231 4.378-17.122 11.153-3.801 8.909-12.509 14.665-22.184 14.665-9.681 0-18.391-5.756-22.192-14.665-2.891-6.776-9.611-11.154-17.122-11.154h-88.736c-8.985-.001-16.294 7.31-16.294 16.296v149.01c0 34.165 9.868 67.255 28.539 95.692 1.44 2.194 3.835 3.385 6.276 3.385 1.412 0 2.841-.398 4.109-1.231 3.463-2.273 4.427-6.923 2.153-10.386-14.117-21.502-22.708-45.923-25.259-71.403h121.026v138.891c-1.295-.226-2.587-.488-3.862-.832-27.735-7.468-51.82-22.014-70.77-40.805-2.94-2.916-7.689-2.897-10.606.044s-2.897 7.69.044 10.606c20.876 20.703 47.279 36.518 77.432 44.639 9.797 2.637 20.375 2.732 30.513.001 48.534-13.068 87.677-46.191 109.513-88.211 11.374-21.889 17.336-46.315 19.306-71.041.021-.263.043-.529.043-.798 0-.026-.004-.051-.004-.077.138-2.822.226-5.647.226-8.476v-149.009c.001-8.985-7.309-16.295-16.293-16.295zm-73.142 47.147h74.436s-.013 118.861-.015 119.212h-121.82v-93.805c18.422-1.969 35.551-11.101 47.399-25.407zm-184.244 118.158v-118.158h74.437c11.848 14.307 28.982 23.439 47.408 25.407v93.807h-121.826c-.002-.353-.019-.702-.019-1.056zm140.696 154.12c-1.272.342-2.559.604-3.851.829v-138.894h121.036c-6.524 66.19-53.993 121.049-117.185 138.065z"/></g></g></svg>